<?xml version="1.0" standalone="no"?>
<!DOCTYPE svg PUBLIC "-//W3C//DTD SVG 20010904//EN"
 "http://www.w3.org/TR/2001/REC-SVG-20010904/DTD/svg10.dtd">
<svg version="1.0" xmlns="http://www.w3.org/2000/svg"
 width="640.000000pt" height="640.000000pt" viewBox="0 0 640.000000 640.000000"
 preserveAspectRatio="xMidYMid meet">

<g transform="translate(0.000000,640.000000) scale(0.100000,-0.100000)"
fill="#000000" stroke="none">
<path d="M0 3200 l0 -3200 3200 0 3200 0 0 3200 0 3200 -3200 0 -3200 0 0
-3200z m3377 2662 c-9 -2 -14 -8 -11 -14 4 -6 -3 -5 -15 2 -20 10 -99 7 -156
-6 -16 -4 -17 -3 -5 5 11 8 -1 9 -45 5 -117 -10 -229 -15 -223 -8 11 11 155
20 318 20 85 0 147 -2 137 -4z m153 -13 c12 -9 12 -10 -4 -5 -10 4 -24 2 -30
-3 -6 -5 -27 -4 -51 4 l-40 11 55 2 c30 1 62 -3 70 -9z m63 -6 c-7 -2 -21 -2
-30 0 -10 3 -4 5 12 5 17 0 24 -2 18 -5z m-193 -23 c0 -5 -6 -10 -14 -10 -8 0
-18 5 -21 10 -3 6 3 10 14 10 12 0 21 -4 21 -10z m-664 -11 c-22 -5 -43 -6
-48 -1 -4 4 14 8 40 9 l47 1 -39 -9z m957 4 c-7 -2 -21 -2 -30 0 -10 3 -4 5
12 5 17 0 24 -2 18 -5z m87 -11 c0 -4 -16 -9 -37 -9 -24 -1 -32 2 -22 8 18 11
59 12 59 1z m-910 -6 c0 -3 -4 -8 -10 -11 -5 -3 -10 -1 -10 4 0 6 5 11 10 11
6 0 10 -2 10 -4z m1001 -14 c-7 -2 -18 1 -23 6 -8 8 -4 9 13 5 13 -4 18 -8 10
-11z m-1271 -1 c0 -5 -10 -7 -22 -4 -16 3 -19 2 -10 -5 9 -6 -3 -9 -35 -9
l-48 -1 40 13 c49 16 75 18 75 6z m1083 -7 c-2 -7 -13 -9 -24 -7 -32 9 -32 22
-1 20 17 -1 28 -7 25 -13z m54 0 c-3 -3 -12 -4 -19 -1 -8 3 -5 6 6 6 11 1 17
-2 13 -5z m220 -10 c-3 -3 -12 -4 -19 -1 -8 3 -5 6 6 6 11 1 17 -2 13 -5z
m-1477 -14 c0 -5 -9 -10 -19 -10 -11 0 -23 -5 -26 -11 -4 -6 -13 -8 -21 -5 -8
3 -27 1 -42 -5 -16 -6 -23 -6 -17 0 6 5 35 16 65 24 30 8 56 15 58 16 1 0 2
-3 2 -9z m1579 -14 c28 -10 31 -14 18 -24 -26 -22 -88 3 -72 28 7 12 11 12 54
-4z m-1579 -16 c0 -5 -5 -10 -11 -10 -5 0 -7 5 -4 10 3 6 8 10 11 10 2 0 4 -4
4 -10z m1689 -27 c13 -1 29 -8 35 -15 6 -7 7 -10 2 -5 -6 4 -20 7 -32 7 -32 0
-85 21 -78 31 3 5 15 4 27 -3 12 -7 33 -14 46 -15z m-1849 7 c0 -5 -8 -10 -17
-10 -15 0 -16 2 -3 10 19 12 20 12 20 0z m1710 -4 c0 -15 -14 -35 -21 -30 -15
9 -10 34 6 34 8 0 15 -2 15 -4z m-1796 -31 c-4 -8 -12 -15 -19 -15 -7 0 -15
-5 -17 -11 -2 -7 -10 -10 -18 -7 -9 3 -1 12 21 25 19 12 35 22 36 22 1 1 0 -6
-3 -14z m1935 -47 c1 -4 -8 0 -19 9 -14 13 -16 19 -7 25 11 6 24 -11 26 -34z
m176 -6 c-3 -3 -11 0 -18 7 -9 10 -8 11 6 5 10 -3 15 -9 12 -12z m-2280 -22
c-3 -5 0 -10 7 -10 23 -1 -26 -24 -52 -24 -14 -1 -25 -6 -25 -13 0 -6 -4 -15
-9 -20 -5 -5 -6 -3 -2 5 8 14 -10 17 -19 2 -3 -5 -15 -10 -26 -10 -11 0 -22
-7 -25 -15 -4 -8 -12 -15 -18 -15 -7 0 -21 -8 -32 -18 -11 -10 -26 -16 -33
-14 -10 3 -12 0 -7 -13 4 -12 2 -16 -8 -12 -9 4 -17 -2 -21 -14 -4 -12 -13
-18 -20 -15 -8 3 -19 -1 -25 -9 -6 -8 -19 -11 -27 -8 -10 4 -14 2 -10 -4 4 -6
-6 -16 -23 -22 -18 -6 -28 -6 -25 -1 4 6 10 10 15 10 5 0 21 11 36 25 15 14
29 23 32 20 3 -3 15 3 26 14 30 27 189 124 204 124 6 0 12 4 12 8 0 4 17 14
38 22 45 19 45 19 37 7z m2349 -12 c-5 -8 -2 -9 10 -5 11 5 15 3 10 -5 -5 -8
-2 -9 10 -5 10 4 15 3 11 -3 -3 -6 1 -10 10 -10 8 0 34 -12 58 -27 23 -15 46
-26 50 -25 5 1 6 -1 3 -6 -5 -9 63 -47 77 -44 5 2 6 -2 3 -7 -6 -9 -136 54
-147 72 -4 5 -11 7 -17 3 -6 -3 -14 -1 -18 5 -5 8 -3 9 6 4 9 -5 11 -4 6 3 -5
9 -13 9 -26 2 -24 -13 -40 -13 -20 0 13 8 12 10 -3 10 -11 0 -15 4 -11 12 5 7
2 9 -8 5 -11 -4 -15 -1 -13 11 5 23 4 22 11 22 3 0 2 -5 -2 -12z m-2344 -48
c18 -12 2 -12 -25 0 -13 6 -15 9 -5 9 8 0 22 -4 30 -9z m2450 -65 c10 -12 10
-15 -4 -15 -9 0 -16 7 -16 15 0 8 2 15 4 15 2 0 9 -7 16 -15z m210 -79 c0 -8
-3 -7 -8 0 -4 6 -17 16 -29 23 -13 6 -23 16 -23 22 0 5 14 0 30 -13 17 -12 30
-27 30 -32z m-935 13 c-16 -7 -14 -8 10 -4 17 3 46 7 65 10 29 4 31 3 10 -4
-16 -6 -19 -9 -8 -10 9 -1 24 -4 34 -8 13 -5 15 -3 10 8 -4 8 4 2 18 -13 16
-18 31 -26 43 -22 17 5 17 5 1 -9 -22 -17 -23 -31 -4 -24 10 4 13 1 10 -7 -3
-7 7 -28 22 -45 14 -18 24 -34 21 -37 -3 -3 -13 7 -24 21 -32 48 -93 105 -126
118 -19 8 -48 11 -74 7 -37 -6 -43 -4 -43 12 0 13 7 18 28 17 24 0 25 -1 7
-10z m875 -23 c0 -2 -7 -7 -16 -10 -8 -3 -12 -2 -9 4 6 10 25 14 25 6z m105
-16 c10 -11 23 -20 30 -20 15 0 60 -48 52 -56 -9 -9 -28 6 -22 17 9 13 -9 11
-25 -3 -12 -11 -12 -10 -1 5 12 15 9 21 -10 19 -3 -1 -19 12 -34 28 -16 17
-24 30 -18 30 5 0 18 -9 28 -20z m-3128 -39 c1 -11 -5 -22 -14 -25 -13 -5 -14
-4 -3 9 10 12 10 15 -1 15 -11 0 -11 2 1 10 8 5 15 10 15 10 1 0 1 -9 2 -19z
m-40 -20 c0 -11 -4 -18 -8 -16 -10 7 -45 -23 -36 -31 4 -5 12 -2 17 6 6 8 10
10 10 4 0 -6 -6 -17 -14 -23 -10 -8 -16 -8 -25 3 -9 11 -9 17 4 28 9 7 24 21
33 30 9 9 18 17 19 17 1 1 1 -8 0 -18z m2086 -11 c-3 -12 -8 -19 -11 -16 -5 6
5 36 12 36 2 0 2 -9 -1 -20z m1192 -10 c3 -5 1 -10 -4 -10 -6 0 -11 5 -11 10
0 6 2 10 4 10 3 0 8 -4 11 -10z m-2532 -7 c-22 -8 -14 -25 8 -18 15 5 19 4 15
-4 -9 -14 -26 -14 -46 -1 -13 9 -13 11 0 20 8 5 20 9 25 9 6 0 4 -3 -2 -6z
m121 -8 c3 -8 2 -15 -3 -15 -5 0 -14 7 -21 15 -10 12 -10 15 3 15 8 0 17 -7
21 -15z m1163 -32 c2 3 -1 16 -8 29 l-12 23 23 -20 c21 -18 23 -18 17 -2 -4
11 -3 16 3 12 14 -9 12 -20 -9 -46 l-18 -23 -17 32 c-20 39 -20 57 0 19 9 -16
18 -27 21 -24z m240 -1 c90 -103 203 -346 228 -490 39 -220 -10 -401 -135
-499 -73 -57 -100 -59 -61 -5 55 79 90 269 71 387 -20 124 -123 405 -149 405
-16 0 -150 -367 -167 -456 -9 -47 -32 -44 -87 10 -57 55 -81 100 -72 134 15
62 219 458 272 530 30 40 54 37 100 -16z m-1450 32 c-3 -3 -12 -4 -19 -1 -8 3
-5 6 6 6 11 1 17 -2 13 -5z m2484 -19 c-1 -15 -24 -12 -29 3 -3 9 2 13 12 10
10 -1 17 -7 17 -13z m-2468 -2 c-7 -2 -21 -2 -30 0 -10 3 -4 5 12 5 17 0 24
-2 18 -5z m1615 -20 c-2 -18 1 -27 10 -25 13 2 16 -10 6 -21 -13 -13 -35 23
-28 48 8 33 15 32 12 -2z m-2518 2 c9 -10 9 -15 1 -15 -6 0 -11 5 -11 11 0 5
-5 7 -10 4 -6 -4 -8 -10 -5 -15 3 -5 0 -12 -6 -16 -8 -4 -9 -3 -5 4 14 22 -12
12 -27 -10 -8 -13 -18 -20 -21 -17 -7 6 52 69 65 69 3 0 12 -7 19 -15z m951
-3 c14 -16 14 -21 2 -38 -10 -14 -14 -15 -13 -4 4 27 0 40 -11 40 -5 0 -7 -4
-4 -10 7 -12 3 -12 -20 -3 -15 5 -14 8 6 19 13 7 24 13 24 14 0 0 8 -8 16 -18z
m-76 -2 c-3 -5 -12 -7 -20 -4 -8 4 -25 -10 -43 -35 -29 -40 -29 -40 -28 -11 1
15 4 26 8 24 4 -3 16 4 28 16 20 20 67 29 55 10z m2405 6 c0 -3 -4 -8 -10 -11
-5 -3 -10 -1 -10 4 0 6 5 11 10 11 6 0 10 -2 10 -4z m115 -6 c-3 -5 -11 -10
-16 -10 -6 0 -7 5 -4 10 3 6 11 10 16 10 6 0 7 -4 4 -10z m35 -15 c11 -13 10
-14 -4 -9 -9 3 -16 10 -16 15 0 13 6 11 20 -6z m-2415 -37 c-2 -27 -15 -54
-15 -30 0 7 -7 9 -17 5 -16 -6 -16 -4 1 15 11 12 16 25 13 29 -4 4 -14 -2 -22
-13 -8 -10 -15 -14 -15 -8 0 16 21 33 40 31 12 -1 16 -9 15 -29z m1565 12 c0
-5 -7 -10 -15 -10 -8 0 -15 5 -15 10 0 6 7 10 15 10 8 0 15 -4 15 -10z m890
-15 c7 -9 8 -15 2 -15 -5 0 -12 7 -16 15 -3 8 -4 15 -2 15 2 0 9 -7 16 -15z
m-3560 -16 c0 -5 -6 -8 -12 -6 -8 1 -12 -6 -11 -18 1 -11 0 -14 -3 -7 -4 9
-12 6 -27 -11 -32 -34 -50 -73 -42 -87 5 -8 3 -11 -6 -8 -8 3 -13 13 -13 22 1
9 -2 16 -7 16 -5 0 -9 -6 -9 -14 0 -16 -18 -31 -26 -23 -3 3 27 39 67 81 65
68 89 83 89 55z m2645 1 c3 -5 2 -10 -4 -10 -5 0 -13 5 -16 10 -3 6 -2 10 4
10 5 0 13 -4 16 -10z m-2580 -19 c-3 -6 -11 -11 -17 -11 -6 0 -6 6 2 15 14 17
26 13 15 -4z m2602 -13 c-3 -8 -6 -5 -6 6 -1 11 2 17 5 13 3 -3 4 -12 1 -19z
m40 -10 c2 -17 0 -19 -7 -8 -5 8 -6 18 -4 22 8 12 10 10 11 -14z m-1900 -10
c-3 -8 -6 -5 -6 6 -1 11 2 17 5 13 3 -3 4 -12 1 -19z m370 10 c7 -5 10 -24 7
-44 -2 -20 0 -33 4 -30 5 3 9 -2 9 -10 0 -10 -11 -4 -33 17 -20 20 -30 37 -26
47 4 11 1 14 -11 9 -15 -6 -32 5 -23 14 9 9 62 7 73 -3z m915 -11 c-4 -14 -7
-16 -13 -5 -12 19 -11 25 5 25 8 0 11 -8 8 -20z m-1054 -66 c68 -87 139 -154
213 -202 l48 -32 -27 -20 c-15 -12 -55 -45 -88 -74 l-62 -54 -35 49 c-44 60
-107 189 -107 219 0 13 -4 23 -10 23 -12 0 -12 -8 1 -128 12 -111 34 -205 57
-244 15 -25 15 -29 -2 -47 -10 -11 -23 -18 -28 -15 -22 14 -77 150 -89 217
-13 82 -7 218 15 287 18 58 37 100 46 100 4 0 35 -35 68 -79z m1092 71 c0 -5
-9 -19 -20 -32 -11 -13 -20 -30 -21 -39 0 -9 -3 -11 -5 -4 -5 12 10 46 30 69
13 16 16 17 16 6z m1499 -2 c10 -5 26 -22 36 -37 17 -27 16 -27 -17 5 -19 18
-37 29 -41 26 -4 -4 -7 -2 -7 4 0 15 6 15 29 2z m-2785 -16 c3 -8 2 -12 -4 -9
-6 3 -10 10 -10 16 0 14 7 11 14 -7z m1841 -4 c-4 -14 -2 -20 6 -18 7 2 14 -6
16 -17 l3 -20 -9 20 -10 20 -1 -20 c-1 -18 -2 -17 -11 4 -5 14 -7 31 -5 38 9
21 18 15 11 -7z m-2725 -4 c0 -3 -4 -8 -10 -11 -5 -3 -10 -1 -10 4 0 6 5 11
10 11 6 0 10 -2 10 -4z m30 -15 c0 -5 -7 -12 -16 -15 -14 -5 -15 -4 -4 9 14
17 20 19 20 6z m1255 -31 c3 -6 -1 -7 -9 -4 -18 7 -21 14 -7 14 6 0 13 -4 16
-10z m15 -35 c-7 -8 -17 -15 -23 -15 -5 0 -2 9 8 20 21 23 35 19 15 -5z m2478
-8 c24 -25 29 -36 21 -47 -8 -11 -10 -11 -7 -1 5 17 -48 74 -62 66 -5 -3 -10
-1 -10 4 0 21 26 11 58 -22z m-2508 19 c0 -3 -4 -8 -10 -11 -5 -3 -10 -1 -10
4 0 6 5 11 10 11 6 0 10 -2 10 -4z m-1407 -23 c-5 -12 -3 -14 7 -8 9 5 7 -4
-6 -25 -22 -39 -41 -48 -50 -25 -4 10 4 27 22 46 32 34 36 35 27 12z m57 7 c0
-5 -4 -10 -10 -10 -5 0 -10 5 -10 10 0 6 5 10 10 10 6 0 10 -4 10 -10z m937
-12 c-3 -8 -6 -5 -6 6 -1 11 2 17 5 13 3 -3 4 -12 1 -19z m2873 0 c0 16 17 16
23 -1 3 -9 -2 -13 -16 -12 -11 1 -23 8 -25 16 -3 11 -1 11 7 -1 7 -10 11 -11
11 -2z m-2422 -10 c-2 -8 5 -12 16 -10 12 2 16 -1 10 -9 -5 -9 -2 -10 9 -6 9
3 16 3 16 -1 -3 -20 2 -32 11 -27 6 4 7 12 4 18 -4 7 -3 8 1 4 5 -4 10 -14 11
-22 3 -21 -34 -10 -63 20 -14 14 -31 25 -37 25 -6 0 -4 5 4 10 19 13 20 12 18
-2z m209 -21 c-8 -6 -4 -7 11 -4 15 4 20 1 15 -6 -4 -7 1 -6 10 2 11 8 28 11
48 7 16 -3 28 -2 26 2 -3 4 13 8 34 8 21 1 36 -2 33 -7 -3 -5 -15 -9 -27 -9
-12 0 -53 -9 -91 -20 -52 -15 -73 -17 -83 -8 -7 6 -16 8 -20 4 -3 -3 -1 -6 5
-6 24 0 11 -18 -19 -29 -18 -6 -36 -11 -40 -11 -16 0 -9 27 11 45 11 10 20 24
20 30 0 8 15 12 39 11 25 0 35 -4 28 -9z m226 6 c-7 -2 -19 -2 -25 0 -7 3 -2
5 12 5 14 0 19 -2 13 -5z m347 -8 c0 -8 -4 -15 -10 -15 -5 0 -7 7 -4 15 4 8 8
15 10 15 2 0 4 -7 4 -15z m710 7 c0 -5 -7 -17 -15 -28 -14 -18 -14 -17 -4 9
12 27 19 34 19 19z m-783 -8 c-3 -3 -12 -4 -19 -1 -8 3 -5 6 6 6 11 1 17 -2
13 -5z m799 -30 c-4 -9 -9 -15 -11 -12 -3 3 -3 13 1 22 4 9 9 15 11 12 3 -3 3
-13 -1 -22z m1039 -12 c16 -20 22 -31 13 -24 -9 8 -22 11 -27 7 -7 -3 -8 0 -5
9 8 21 -5 20 -23 -1 -13 -16 -13 -16 -3 5 6 12 8 27 5 32 -15 25 13 5 40 -28z
m-3018 -4 c-3 -7 -5 -2 -5 12 0 14 2 19 5 13 2 -7 2 -19 0 -25z m-1017 1 c0
-5 -4 -10 -10 -10 -5 -1 -14 -2 -19 -3 -16 -2 -35 -25 -27 -33 4 -4 11 -2 15
5 5 8 8 1 8 -17 0 -30 -1 -30 -18 -10 -17 19 -18 19 -28 2 -7 -12 -11 -13 -11
-4 0 23 60 91 75 84 8 -3 15 -9 15 -14z m2989 -15 c7 5 9 1 5 -8 -3 -9 -2 -16
4 -16 6 0 8 -10 4 -22 -4 -17 -2 -20 11 -15 19 7 20 6 11 -17 -3 -9 -10 -13
-15 -10 -12 7 -11 -13 1 -37 7 -12 7 -19 1 -19 -11 0 -15 13 -30 81 -6 25 -13
54 -17 65 -4 14 -3 16 4 5 5 -7 15 -11 21 -7z m1084 -37 c7 3 9 3 5 -2 -4 -4
8 -25 26 -46 46 -50 59 -76 44 -85 -6 -4 -8 -3 -4 4 3 6 0 16 -7 24 -7 7 -21
24 -30 38 -11 16 -17 19 -17 9 0 -8 5 -20 12 -27 6 -6 9 -15 5 -19 -12 -11
-27 11 -29 42 -1 17 -8 36 -15 43 -7 7 -13 19 -12 25 0 8 2 8 6 -1 2 -6 10 -9
16 -5z m-4178 -37 c-3 -5 -2 -10 4 -10 6 0 8 -7 5 -15 -4 -8 -11 -12 -16 -9
-6 4 -8 -2 -3 -17 7 -23 7 -24 -9 -4 -15 20 -15 19 -13 -5 1 -14 -2 -26 -8
-28 -5 -2 -13 -12 -17 -23 -4 -11 -12 -18 -17 -14 -5 3 -12 -3 -16 -14 -3 -11
-13 -25 -22 -33 -12 -9 -10 -2 6 30 12 23 26 40 32 36 6 -3 9 2 7 12 -2 10 2
19 9 19 6 0 15 4 20 9 5 5 3 6 -4 2 -22 -13 -14 12 9 28 12 9 19 16 14 16 -5
0 -3 7 4 15 14 17 24 20 15 5z m4168 -75 c-3 -9 -8 -14 -10 -11 -3 3 -2 9 2
15 9 16 15 13 8 -4z m-1013 -55 c0 -22 -4 -40 -10 -40 -5 0 -10 18 -10 40 0
22 5 40 10 40 6 0 10 -18 10 -40z m1131 5 c5 4 6 -1 2 -10 -5 -13 -7 -14 -14
-3 -5 7 -8 18 -8 23 0 6 3 4 6 -3 2 -6 9 -10 14 -7z m-1174 -47 c-3 -7 -5 -2
-5 12 0 14 2 19 5 13 2 -7 2 -19 0 -25z m1208 10 c5 -4 0 -6 -12 -6 -13 1 -19
7 -16 15 3 8 8 10 12 6 3 -4 10 -11 16 -15z m-162 -42 c17 -16 32 -31 32 -35
0 -3 6 -15 14 -26 7 -12 11 -13 8 -4 -3 9 -1 22 4 30 7 12 9 12 10 -1 1 -8 1
-19 0 -24 -1 -4 1 -17 5 -29 6 -18 8 -19 18 -6 15 20 41 18 40 -3 -1 -10 -3
-30 -4 -45 l-2 -28 -7 25 -7 25 -8 -22 c-4 -13 -4 -28 0 -34 4 -8 3 -9 -4 -5
-7 4 -12 20 -12 37 0 16 -4 29 -10 29 -5 0 -7 -8 -4 -17 5 -16 4 -16 -6 0 -6
10 -9 24 -7 31 3 8 -1 13 -10 12 -9 0 -20 12 -27 31 -6 18 -19 40 -28 50 -17
16 -19 16 -38 -5 -24 -25 -32 -28 -24 -8 3 8 1 23 -5 34 -9 16 -7 19 15 18 13
-1 39 -15 57 -30z m27 19 c11 -13 10 -14 -4 -9 -9 3 -16 10 -16 15 0 13 6 11
20 -6z m-3030 -43 c0 -8 5 -10 13 -6 6 4 9 4 5 -1 -4 -4 4 -26 17 -49 l24 -42
-23 -2 c-28 -2 -38 18 -30 56 5 24 4 24 -12 -6 -9 -18 -18 -31 -21 -29 -8 9
-10 86 -1 81 5 -3 6 -15 3 -27 -5 -19 -4 -19 5 -5 7 11 7 25 0 43 -5 14 -10
29 -10 33 1 13 30 -32 30 -46z m3210 -8 c0 -2 -6 -3 -12 -1 -18 3 -10 -45 9
-60 17 -13 12 -30 -6 -19 -15 10 -33 80 -21 84 6 2 10 8 10 13 0 6 -4 7 -10 4
-5 -3 -10 -4 -10 -1 0 2 -3 13 -7 23 -4 12 2 9 20 -10 15 -15 27 -30 27 -33z
m-4497 31 c-3 -9 -8 -14 -10 -11 -3 3 -2 9 2 15 9 16 15 13 8 -4z m-35 -68
c-6 -20 -15 -37 -19 -37 -5 0 -5 10 0 23 5 12 12 31 15 41 4 10 8 17 11 14 2
-2 -1 -21 -7 -41z m42 33 c0 -5 -4 -10 -10 -10 -5 0 -10 5 -10 10 0 6 5 10 10
10 6 0 10 -4 10 -10z m3238 -65 c-2 -41 -7 -75 -12 -75 -5 0 -6 17 -2 38 3 20
6 54 6 75 0 20 3 37 6 37 3 0 4 -34 2 -75z m1299 -50 c-8 -15 -11 -17 -15 -5
-3 7 0 16 7 18 8 3 3 15 -14 37 -14 19 -25 40 -25 47 0 7 13 -7 29 -32 23 -36
26 -49 18 -65z m-375 73 c-7 -7 -12 -8 -12 -2 0 14 12 26 19 19 2 -3 -1 -11
-7 -17z m-34 -28 c-1 -16 -1 -30 2 -30 16 -3 39 14 44 33 3 12 8 18 11 15 4
-3 -5 -28 -18 -55 l-25 -48 -12 27 c-7 15 -18 25 -24 21 -6 -3 -5 0 2 8 6 7
12 23 12 36 0 13 3 23 6 23 3 0 4 -13 2 -30z m-4191 -45 c14 -44 0 -46 -15 -2
l-12 32 4 -42 c2 -24 0 -43 -5 -43 -5 0 -9 6 -9 13 0 8 -4 7 -10 -3 -15 -23
-12 3 5 44 19 45 29 45 42 1z m4571 7 c-2 -8 -11 -16 -21 -18 -11 -1 -16 0
-13 3 3 4 -1 14 -9 23 -14 15 -12 16 16 12 20 -3 29 -9 27 -20z m-3144 -24
c-3 -5 -10 -6 -15 -3 -5 4 -9 2 -9 -4 0 -16 18 -22 23 -9 3 10 8 9 20 -2 13
-13 13 -18 -4 -45 -10 -16 -19 -25 -19 -20 0 6 4 17 9 25 6 8 7 18 4 23 -3 6
-12 -3 -19 -19 -10 -21 -12 -23 -8 -6 4 15 -1 30 -12 43 -10 11 -12 19 -6 19
7 0 12 5 12 11 0 5 -5 7 -12 3 -7 -4 -8 -3 -4 4 5 9 12 9 26 0 10 -7 16 -16
14 -20z m3228 -61 c25 -48 31 -84 18 -105 -9 -15 -10 -14 -5 5 3 12 2 30 -4
40 -5 10 -17 35 -26 56 -9 20 -20 35 -25 32 -16 -10 -21 14 -9 37 l12 23 10
-25 c5 -14 18 -42 29 -63z m-493 -30 c-18 -31 -37 -53 -43 -50 -5 4 -7 -1 -3
-10 3 -9 2 -19 -3 -22 -16 -10 -11 32 5 45 12 10 12 16 4 26 -6 8 -8 25 -4 41
5 21 8 24 16 12 12 -19 11 -32 -1 -24 -5 3 -10 -1 -10 -9 0 -20 14 -20 30 -1
10 12 10 18 0 30 -9 10 -9 15 -1 15 6 0 11 -6 12 -12 0 -7 5 -2 12 11 6 13 13
19 14 14 2 -6 -11 -35 -28 -66z m340 23 c0 -10 -3 -8 -9 5 -12 27 -12 43 0 25
5 -8 9 -22 9 -30z m-4559 9 c0 -6 -4 -8 -9 -5 -5 3 -11 -8 -13 -26 -5 -28 -4
-29 9 -13 7 11 13 14 13 8 0 -13 -18 -26 -37 -29 -16 -3 -16 -2 3 46 14 35 34
46 34 19z m571 -2 c-10 -9 -11 -8 -5 6 3 10 9 15 12 12 3 -3 0 -11 -7 -18z
m126 11 c17 -14 17 -25 -1 -25 -8 0 -12 6 -9 14 8 22 -19 11 -42 -17 -12 -14
-32 -42 -44 -63 -13 -21 -26 -35 -30 -32 -9 10 -8 55 1 49 4 -3 8 6 8 20 0 14
5 28 11 32 7 4 9 0 5 -14 -4 -11 -2 -23 4 -27 5 -3 10 1 10 10 0 8 7 18 15 21
8 4 12 10 9 15 -14 23 39 38 63 17z m3855 -43 c3 4 5 -2 5 -12 -2 -12 4 -17
16 -15 17 3 25 -27 10 -42 -7 -7 -73 101 -72 119 0 6 8 -5 17 -23 10 -18 21
-30 24 -27z m128 27 c0 -10 5 -23 12 -30 7 -7 8 -12 2 -12 -16 0 -34 22 -34
42 0 10 5 18 10 18 6 0 10 -8 10 -18z m-21 -47 c0 -5 -4 -3 -9 5 -5 8 -9 22
-9 30 0 16 17 -16 18 -35z m-3195 -10 c5 -22 4 -26 -4 -15 -5 8 -10 24 -10 34
0 26 6 18 14 -19z m1851 -21 c2 -34 1 -36 -12 -18 -7 10 -11 25 -8 32 3 8 5
19 5 24 0 28 13 -5 15 -38z m44 13 c0 -9 -2 -8 -6 1 -2 6 -10 9 -15 6 -7 -4
-8 -2 -4 5 9 13 26 5 25 -12z m-2576 -1 c4 -10 1 -13 -8 -10 -8 3 -16 -3 -20
-15 -3 -12 -11 -19 -16 -16 -9 6 20 54 32 55 4 0 9 -7 12 -14z m3837 -1 c0 -8
-2 -15 -4 -15 -2 0 -6 7 -10 15 -3 8 -1 15 4 15 6 0 10 -7 10 -15z m-3171 -59
c-5 -17 -16 -45 -24 -61 -8 -17 -18 -60 -23 -96 l-10 -64 -1 57 c0 31 -4 64
-7 72 -5 12 -2 15 10 10 11 -4 16 0 16 13 0 10 5 24 10 29 12 12 22 50 21 79
0 15 2 16 8 6 5 -8 5 -28 0 -45z m1901 18 c0 -8 -4 -12 -10 -9 -5 3 -10 10
-10 16 0 5 5 9 10 9 6 0 10 -7 10 -16z m-3408 -3 c8 12 9 12 6 0 -2 -8 -11
-15 -20 -17 -12 -1 -15 3 -10 14 4 12 7 13 10 3 4 -11 6 -11 14 0z m29 -14
c-10 -9 -11 -8 -5 6 3 10 9 15 12 12 3 -3 0 -11 -7 -18z m4673 1 c-5 -7 -7
-29 -6 -48 1 -35 -1 -31 -18 23 -6 17 -6 25 0 22 6 -4 10 -1 10 4 0 6 5 11 11
11 5 0 7 -6 3 -12z m-520 -55 c-20 -32 -37 -59 -39 -60 -1 -2 -1 21 -1 50 1
37 5 52 15 52 8 0 16 -6 19 -12 2 -7 -1 -13 -7 -13 -6 0 -11 5 -11 12 0 6 -2
9 -5 6 -3 -3 -3 -13 1 -22 5 -13 9 -14 20 -5 8 6 14 17 14 24 0 11 9 19 28 24
1 1 -14 -25 -34 -56z m495 2 c0 -5 -6 1 -14 15 -8 14 -14 30 -14 35 0 6 6 -1
14 -15 8 -14 14 -29 14 -35z m181 -21 c0 -1 -6 -4 -12 -7 -8 -2 -14 4 -14 17
-1 11 -5 32 -8 46 -4 15 1 9 13 -14 12 -22 21 -41 21 -42z m-3393 41 c-7 -13
-14 -20 -15 -14 -2 5 2 16 8 24 18 21 20 18 7 -10z m1944 2 c-10 -9 -11 -8 -5
6 3 10 9 15 12 12 3 -3 0 -11 -7 -18z m39 13 c0 -5 -2 -10 -4 -10 -3 0 -8 5
-11 10 -3 6 -1 10 4 10 6 0 11 -4 11 -10z m-3473 -12 c-14 -40 -18 -60 -10
-55 5 3 9 -14 9 -38 -1 -24 -5 -41 -10 -38 -4 3 -5 18 -2 34 3 15 1 31 -4 34
-6 4 -10 -7 -10 -23 0 -25 -25 -92 -35 -92 -1 0 -2 11 -1 24 0 13 6 24 11 23
6 -1 10 10 11 25 1 29 32 118 41 118 3 0 3 -6 0 -12z m596 -18 c-3 -10 1 -9
11 4 9 11 16 16 16 10 -1 -31 -45 -43 -53 -14 -2 10 2 16 13 16 11 0 16 -6 13
-16z m278 -16 c3 3 5 -4 5 -14 0 -26 -3 -25 -21 10 -18 35 -20 55 -2 22 7 -12
15 -20 18 -18z m2638 -11 c12 -19 16 -35 10 -44 -6 -11 -9 -8 -9 9 0 15 -6 22
-19 22 -12 0 -20 9 -23 24 -7 34 18 27 41 -11z m1311 7 c5 0 11 6 14 13 3 6 5
3 3 -8 -3 -29 -32 -25 -34 5 -1 14 0 18 3 8 3 -10 9 -18 14 -18z m-3373 -2
c-3 -8 -6 -5 -6 6 -1 11 2 17 5 13 3 -3 4 -12 1 -19z m-870 -35 c-16 -16 -17
-16 -17 0 0 10 5 15 10 12 6 -3 10 -1 10 6 0 7 3 9 7 5 4 -3 -1 -14 -10 -23z
m-79 -3 c-7 -10 -14 -18 -15 -16 -6 6 9 36 18 36 5 0 4 -9 -3 -20z m42 11 c0
-5 -6 -14 -14 -20 -12 -10 -13 -8 -9 8 5 21 23 30 23 12z m388 -5 c-7 -8 -15
-12 -17 -11 -5 6 10 25 20 25 5 0 4 -6 -3 -14z m30 -21 c0 -19 -4 -37 -8 -40
-5 -3 -6 4 -3 15 4 16 2 19 -13 13 -16 -6 -16 -5 2 20 10 14 20 27 21 27 0 0
1 -16 1 -35z m1568 3 c45 -40 64 -83 64 -145 0 -70 -11 -81 -49 -53 -18 12
-49 24 -70 27 -81 11 -198 -74 -272 -196 l-39 -66 0 55 c0 151 96 330 208 389
59 32 114 27 158 -11z m942 7 c-3 -3 -9 2 -12 12 -6 14 -5 15 5 6 7 -7 10 -15
7 -18z m602 18 c0 -5 -5 -15 -10 -23 -8 -12 -10 -11 -10 8 0 12 5 22 10 22 6
0 10 -3 10 -7z m60 -3 c0 -5 -2 -10 -4 -10 -3 0 -8 5 -11 10 -3 6 -1 10 4 10
6 0 11 -4 11 -10z m631 -19 c5 7 9 18 9 24 0 5 8 2 17 -8 13 -13 15 -19 5 -29
-9 -9 -12 -8 -13 8 0 14 -3 12 -11 -9 l-10 -28 -24 32 c-29 40 -31 54 -3 20
17 -21 22 -22 30 -10z m89 14 c0 -9 -6 -12 -15 -9 -8 4 -12 10 -9 15 8 14 24
10 24 -6z m34 0 c-4 -8 -1 -15 5 -15 5 0 17 -23 26 -52 12 -41 12 -53 3 -60
-15 -9 -30 46 -21 77 3 11 2 17 -2 13 -9 -9 -34 33 -28 45 8 14 22 7 17 -8z
m-1389 -15 c-3 -11 -3 -20 2 -20 5 0 9 -9 9 -20 0 -28 -14 -10 -22 28 -4 22
-3 32 5 32 8 0 10 -8 6 -20z m-2585 -26 c0 -3 -7 -1 -15 6 -8 7 -15 17 -15 22
0 5 7 3 15 -6 8 -8 15 -18 15 -22z m3200 21 c0 -8 -4 -15 -10 -15 -5 0 -10 7
-10 15 0 8 5 15 10 15 6 0 10 -7 10 -15z m-2411 -34 c32 -61 56 -261 32 -261
-4 0 -21 18 -36 41 -35 50 -76 73 -115 64 -29 -6 -29 -6 -23 32 8 54 40 125
66 145 35 27 55 22 76 -21z m2451 30 c0 -12 -70 -115 -81 -119 -5 -2 -9 -9 -9
-15 -1 -22 -67 -90 -74 -78 -5 7 -2 10 6 9 7 -2 12 3 11 10 -2 6 2 12 7 12 7
0 6 8 -1 23 -12 21 -11 21 6 7 17 -14 18 -14 5 10 l-13 25 22 -19 c23 -21 27
-16 11 15 -7 13 -7 19 0 19 5 0 10 11 10 25 0 32 27 34 32 3 3 -19 8 -13 28
30 23 47 40 66 40 43z m-3610 -30 c-6 -12 -16 -18 -22 -15 -6 4 -8 3 -4 -4 9
-14 -33 -84 -47 -75 -5 3 -7 1 -4 -4 8 -12 -93 -170 -106 -169 -5 1 -15 -12
-23 -29 -11 -24 -12 -25 -7 -5 3 14 6 33 5 43 0 10 6 32 14 50 l14 32 -6 -37
c-4 -25 -2 -38 5 -38 6 0 11 5 11 12 0 6 7 18 15 27 19 20 65 89 65 98 0 4 -7
-2 -15 -13 -13 -16 -16 -17 -25 -4 -12 19 -8 35 11 36 35 2 49 17 49 51 0 21
4 32 10 28 6 -4 8 -16 4 -27 -4 -14 -3 -18 5 -13 7 4 11 16 9 28 -2 14 2 22
12 22 8 0 18 9 23 19 4 10 10 16 13 13 3 -3 1 -15 -6 -26z m4257 -33 c-3 -7
-5 -2 -5 12 0 14 2 19 5 13 2 -7 2 -19 0 -25z m-1237 0 c0 -13 -32 -6 -37 9
-3 7 3 9 16 6 12 -3 21 -10 21 -15z m1223 -10 c6 -22 5 -22 -8 -4 -17 22 -20
40 -6 32 5 -3 11 -16 14 -28z m54 10 c-3 -8 -6 -5 -6 6 -1 11 2 17 5 13 3 -3
4 -12 1 -19z m-3380 -25 c-3 -10 -5 -4 -5 12 0 17 2 24 5 18 2 -7 2 -21 0 -30z
m2136 -15 c3 -11 -1 -34 -9 -50 -15 -29 -26 -37 -23 -15 3 25 -1 37 -12 35 -6
-2 -12 7 -14 20 -2 25 13 30 21 7 9 -23 26 -18 19 5 -3 11 -2 20 3 20 5 0 12
-10 15 -22z m1224 -30 c-2 -13 -4 -5 -4 17 -1 22 1 32 4 23 2 -10 2 -28 0 -40z
m43 12 c9 -6 10 -10 3 -10 -7 0 -15 -17 -19 -37 -6 -31 -8 -34 -15 -18 -4 12
-1 29 7 42 10 17 11 23 1 26 -6 3 -7 6 -2 6 6 0 17 -4 25 -9z m-3873 -12 c0
-7 3 -26 7 -43 7 -29 7 -29 -12 5 -15 29 -14 47 4 50 0 0 1 -6 1 -12z m483 8
c0 -2 -7 -6 -15 -10 -8 -3 -15 -1 -15 4 0 6 7 10 15 10 8 0 15 -2 15 -4z
m2170 -11 c0 -8 -7 -15 -15 -15 -9 0 -12 6 -9 15 4 8 10 15 15 15 5 0 9 -7 9
-15z m-2620 -5 c0 -5 -4 -10 -10 -10 -5 0 -10 5 -10 10 0 6 5 10 10 10 6 0 10
-4 10 -10z m-1108 -25 c3 -13 1 -22 -3 -19 -5 3 -9 0 -9 -7 0 -7 -2 -10 -5 -7
-6 5 4 58 10 58 1 0 5 -11 7 -25z m5023 -7 c-4 -17 -2 -28 4 -28 6 0 8 8 4 18
-4 11 -3 14 4 7 15 -15 67 -256 57 -264 -5 -3 -10 -15 -11 -26 l-2 -20 16 20
c11 14 14 15 10 4 -3 -9 1 -35 9 -58 21 -62 30 -377 14 -521 -7 -63 -12 -126
-11 -139 0 -14 -2 -21 -6 -17 -4 4 -5 64 -3 134 3 70 4 216 2 325 -3 175 -5
202 -23 230 -10 18 -19 40 -19 50 0 12 -4 16 -12 11 -8 -4 -10 -3 -5 2 5 5 14
9 20 9 7 0 13 9 15 20 3 17 1 18 -8 5 -9 -12 -11 -9 -7 13 5 32 -12 97 -25 97
-4 0 -1 -16 7 -37 8 -20 14 -38 11 -40 -2 -2 -10 13 -19 35 -8 21 -23 45 -33
53 -16 12 -17 12 -11 -3 9 -23 15 -45 10 -35 -3 4 -9 5 -14 2 -5 -4 -6 2 -2
11 5 13 3 15 -7 9 -10 -6 -12 -4 -7 9 4 10 3 15 -3 11 -13 -8 -40 48 -40 82 0
15 5 35 11 43 8 11 9 8 4 -13 -4 -21 -3 -27 6 -21 8 4 9 3 5 -4 -9 -15 15 -52
34 -52 13 0 13 1 0 10 -12 8 -11 10 7 10 12 0 25 6 29 13 4 6 4 9 -1 5 -12
-11 -35 18 -35 45 0 15 6 24 15 24 12 0 14 -7 10 -29z m-38 -15 c-3 -10 -5 -4
-5 12 0 17 2 24 5 18 2 -7 2 -21 0 -30z m-1300 6 c-4 -15 1 -22 19 -29 13 -5
24 -12 24 -16 0 -3 -7 -4 -15 0 -9 3 -15 0 -15 -8 0 -8 7 -16 15 -20 8 -3 15
-10 15 -16 0 -21 -16 -9 -42 31 -22 34 -25 44 -15 60 15 25 21 24 14 -2z
m-2146 -35 c-5 -21 -9 -30 -10 -19 -1 24 10 67 15 62 3 -2 0 -22 -5 -43z
m-426 6 c-4 -12 -9 -19 -12 -17 -3 3 -2 15 2 27 4 12 9 19 12 17 3 -3 2 -15
-2 -27z m40 -30 c-7 -27 -9 -50 -4 -50 5 0 9 -7 9 -16 0 -8 5 -12 11 -9 6 4 8
13 5 21 -8 21 2 17 14 -5 6 -13 7 -28 1 -43 -8 -20 -10 -20 -10 -4 -1 11 -4
16 -8 13 -10 -11 -46 54 -50 91 -3 32 -3 33 44 51 0 1 -5 -21 -12 -49z m-1148
18 c-3 -8 -6 -5 -6 6 -1 11 2 17 5 13 3 -3 4 -12 1 -19z m3758 3 c3 -10 1 -30
-4 -45 -7 -17 -7 -26 -1 -26 6 0 10 -7 10 -16 0 -8 -5 -12 -11 -8 -8 4 -9 -1
-5 -17 3 -13 3 -18 0 -11 -3 6 -10 9 -16 6 -6 -4 -6 2 1 14 15 29 13 41 -3 19
-13 -17 -14 -17 -20 0 -4 10 -4 14 0 11 8 -8 34 14 27 24 -2 4 1 17 7 28 7 13
7 20 0 20 -5 0 -10 5 -10 10 0 17 18 11 25 -9z m298 1 c14 -15 11 -22 -36 -77
-86 -100 -191 -205 -205 -205 -7 0 -1 11 14 23 17 15 23 26 16 31 -6 3 -13 -3
-17 -14 -6 -18 -25 -29 -25 -14 0 12 61 66 68 60 3 -4 0 -11 -8 -16 -8 -5 -11
-12 -7 -17 5 -4 12 -1 17 7 13 20 12 26 -5 44 -12 11 -12 16 -3 23 21 13 56
10 51 -4 -6 -15 -23 -17 -23 -3 0 6 -4 10 -10 10 -16 0 -11 -17 7 -24 17 -7
73 38 73 58 0 6 -5 5 -12 -2 -17 -17 -33 -15 -18 3 8 10 21 13 33 9 16 -5 19
-3 13 11 -5 13 -2 16 10 11 12 -4 15 -2 11 9 -4 8 -2 17 4 21 6 3 8 13 5 21
-3 8 -1 11 4 8 12 -8 13 1 1 24 -13 23 22 26 42 3z m-4079 -17 c-4 -8 -8 -15
-10 -15 -2 0 -4 7 -4 15 0 8 4 15 10 15 5 0 7 -7 4 -15z m2709 -92 c0 -96 -28
-175 -78 -223 -34 -33 -50 -33 -21 -1 52 60 93 199 82 281 -5 34 -4 42 6 32 7
-7 11 -42 11 -89z m-2693 31 c-6 -14 -10 -35 -9 -47 1 -20 2 -20 9 3 7 21 8
21 9 5 0 -11 -3 -26 -8 -34 -19 -30 -31 43 -13 77 17 30 24 28 12 -4z m1743
12 c35 -27 49 -136 24 -186 -8 -16 -21 -25 -37 -25 -37 0 -51 37 -48 121 2 41
9 78 17 88 16 19 21 19 44 2z m778 -2 c7 -8 14 -40 17 -69 4 -45 0 -65 -23
-111 -17 -34 -40 -63 -59 -75 -40 -24 -42 -24 -71 6 -65 64 5 265 93 265 16 0
35 -7 43 -16z m-2556 -44 c-1 -27 -9 -57 -16 -67 -11 -13 -11 -17 -1 -20 17
-6 15 -23 -3 -23 -17 0 -21 45 -4 55 6 4 8 13 5 20 -5 13 11 85 18 85 2 0 3
-22 1 -50z m3982 25 c-15 -16 -19 -13 -11 9 3 9 10 13 15 10 5 -3 3 -11 -4
-19z m-3604 -70 c-3 -9 -8 -14 -10 -11 -3 3 -2 9 2 15 9 16 15 13 8 -4z m47
-1 c0 -24 -40 -85 -51 -78 -6 3 2 17 16 31 34 34 32 53 -2 22 l-27 -24 25 32
c27 36 39 41 39 17z m3378 -9 c-3 -3 -9 2 -12 12 -6 14 -5 15 5 6 7 -7 10 -15
7 -18z m1272 11 c0 14 20 -19 20 -33 0 -7 -4 -13 -10 -13 -5 0 -6 7 -3 17 4
10 2 14 -5 9 -6 -4 -16 3 -23 16 -11 21 -11 22 4 9 10 -7 17 -10 17 -5z
m-3800 -53 c0 -7 4 -13 8 -13 13 0 8 36 -7 54 -9 10 -9 16 -3 16 18 0 34 -40
28 -68 -6 -26 -6 -26 9 -8 8 11 15 15 15 10 0 -6 -6 -16 -12 -22 -10 -10 -10
-15 2 -22 8 -5 11 -13 6 -17 -5 -4 -11 -3 -13 3 -2 6 -22 35 -43 65 -46 61
-50 71 -15 38 13 -13 25 -30 25 -36z m307 -10 c-3 -10 -5 -2 -5 17 0 19 2 27
5 18 2 -10 2 -26 0 -35z m-1557 9 c0 -15 -2 -15 -10 -2 -13 20 -13 33 0 25 6
-3 10 -14 10 -23z m3810 3 c0 -7 6 -16 13 -18 7 -3 5 -6 -5 -6 -10 -1 -18 3
-18 8 0 5 -3 17 -7 27 -4 12 -3 15 5 10 7 -4 12 -13 12 -21z m30 4 c0 -5 -4
-9 -10 -9 -5 0 -10 7 -10 16 0 8 5 12 10 9 6 -3 10 -10 10 -16z m-2421 -30
c-20 -13 -36 -11 -42 4 -4 10 3 12 25 9 21 -3 26 -7 17 -13z m-1104 -9 c-3 -5
-11 -10 -16 -10 -6 0 -7 5 -4 10 3 6 11 10 16 10 6 0 7 -4 4 -10z m-380 -98
c-10 -70 -18 -40 -9 35 5 45 9 58 12 39 2 -17 1 -50 -3 -74z m1624 89 c3 -1
-4 -7 -14 -15 -16 -12 -72 -12 -84 -1 -16 16 33 24 98 16z m-1271 -36 c6 11
12 15 12 9 0 -6 -7 -17 -15 -24 -8 -7 -15 -22 -15 -34 0 -18 3 -16 20 12 11
18 20 39 20 47 0 15 18 30 26 22 8 -8 -57 -108 -66 -102 -4 3 -8 29 -8 57 1
41 2 46 7 23 6 -28 7 -29 19 -10z m1272 11 c0 -3 -4 -8 -10 -11 -5 -3 -10 -1
-10 4 0 6 5 11 10 11 6 0 10 -2 10 -4z m-140 -21 c0 -2 -7 -5 -15 -9 -9 -3
-15 0 -15 9 0 9 6 12 15 9 8 -4 15 -7 15 -9z m-100 -10 c0 5 5 4 12 -3 8 -8
15 -8 24 -1 16 13 30 -9 15 -24 -6 -6 -11 -14 -11 -18 0 -10 44 2 52 15 4 6
11 7 15 2 4 -5 2 -11 -5 -13 -7 -3 -18 -10 -25 -16 -18 -17 -30 -17 -45 -1 -7
8 -10 14 -6 14 4 0 -5 9 -20 21 -14 11 -26 26 -26 32 0 7 4 6 10 -3 5 -8 10
-11 10 -5z m159 -4 c21 -14 -24 -25 -46 -11 -15 8 -12 9 12 4 23 -4 26 -3 15
5 -18 13 -1 14 19 2z m570 -67 c62 -8 166 -26 230 -39 64 -13 157 -29 206 -36
50 -7 95 -18 101 -25 7 -9 21 -10 50 -4 47 11 211 12 238 1 23 -9 33 -4 -114
-57 -52 -19 -99 -39 -103 -43 -5 -5 14 -28 42 -51 51 -43 57 -60 19 -60 -15 0
-18 -4 -13 -17 37 -86 40 -101 23 -120 -9 -10 -21 -37 -27 -60 -12 -44 -25
-60 -36 -43 -4 6 -27 -18 -52 -52 -83 -113 -210 -264 -264 -312 -131 -118
-311 -161 -507 -120 -163 33 -286 105 -429 250 -72 73 -100 110 -132 176 -126
254 -46 451 241 599 77 40 283 45 527 13z m-1809 -34 c-17 -22 -36 -40 -41
-40 -5 0 -8 -3 -6 -7 1 -5 -1 -9 -5 -10 -9 -3 -9 -3 -1 27 3 11 9 18 13 15 10
-6 35 24 26 32 -3 3 -6 1 -6 -5 0 -7 -5 -12 -11 -12 -21 0 -2 25 20 26 12 1
24 4 28 8 20 20 10 0 -17 -34z m-305 -253 c7 -16 8 -16 20 -1 8 11 14 13 19 6
3 -6 -2 -17 -11 -24 -22 -16 -27 -36 -13 -53 8 -9 6 -14 -5 -19 -20 -7 -20
-72 1 -201 9 -55 18 -111 20 -125 1 -14 8 -51 15 -82 7 -32 10 -60 6 -64 -10
-11 -15 -2 -21 36 -3 19 -15 80 -26 135 -18 84 -22 144 -24 380 -3 191 -1 240
4 155 4 -69 10 -133 15 -143z m2 156 c-2 -16 -4 -3 -4 27 0 30 2 43 4 28 2
-16 2 -40 0 -55z m203 3 c0 -6 5 -5 12 2 8 8 8 15 -2 29 -13 17 -13 17 4 2 23
-21 15 -36 -63 -128 -112 -129 -120 -136 -133 -123 -9 9 -8 12 4 12 9 0 19 9
23 19 3 10 15 21 25 24 11 3 20 10 20 17 0 7 -8 9 -20 5 -11 -3 -20 -2 -20 4
0 5 -8 11 -17 14 -10 2 6 3 35 1 48 -3 53 -2 62 20 4 13 16 26 25 30 10 4 15
12 11 22 -3 8 -2 13 3 10 5 -3 14 1 22 10 10 12 9 18 -6 32 -17 16 -17 16 -11
-3 5 -14 4 -17 -3 -10 -6 6 -8 21 -4 34 6 23 7 23 20 6 7 -11 13 -23 13 -29z
m-187 -43 c4 -3 3 -11 -2 -17 -5 -6 -11 -22 -14 -36 -3 -16 -5 -10 -6 18 -1
39 6 51 22 35z m110 -34 c-6 -6 -9 -18 -6 -25 3 -8 0 -14 -6 -14 -6 0 -11 11
-11 25 0 17 6 25 17 25 13 0 14 -3 6 -11z m4477 -349 c-7 -201 -18 -255 -65
-326 -41 -62 -43 -3 -4 126 13 41 23 117 28 208 7 106 13 149 26 168 9 14 18
24 20 22 1 -1 -1 -91 -5 -198z m-3648 131 c-5 -22 -233 -406 -422 -711 -29
-47 -73 -118 -97 -158 -41 -66 -61 -83 -70 -56 -2 5 20 47 48 94 28 47 59 99
69 115 9 17 37 62 62 100 24 39 102 165 173 280 70 116 148 243 173 283 24 40
50 71 56 69 6 -3 10 -10 8 -16z m4221 -218 c-7 -2 -10 -10 -7 -17 7 -18 -35
-220 -46 -224 -5 -2 -6 -11 -3 -20 4 -12 3 -14 -5 -7 -7 7 -4 35 9 95 11 47
22 96 24 110 12 81 16 93 28 80 9 -10 9 -14 0 -17z m-2123 -262 c-16 -38 -54
-149 -86 -247 -32 -99 -58 -180 -58 -180 -1 -1 -11 -5 -23 -8 -21 -7 -23 -4
-23 26 0 18 5 51 11 73 22 81 181 405 199 405 4 0 -5 -31 -20 -69z m-2950
-106 c12 -44 28 -91 36 -105 22 -41 99 -224 99 -235 0 -5 5 -14 11 -20 6 -5
25 -36 43 -68 26 -48 29 -58 15 -55 -10 1 -22 17 -27 33 -6 17 -15 33 -21 37
-6 4 -7 8 -3 8 5 0 0 11 -11 25 -11 14 -28 50 -38 80 -9 30 -20 55 -25 55 -5
0 -5 7 -2 17 4 11 3 14 -5 9 -11 -6 -17 5 -13 27 0 4 -3 7 -8 7 -5 0 -12 12
-16 27 -3 15 -16 47 -27 72 -30 66 -48 134 -42 155 4 12 2 16 -5 12 -12 -8
-15 6 -4 18 10 10 18 -9 43 -99z m2462 -117 c3 -94 12 -187 23 -240 11 -48 17
-89 14 -91 -2 -2 -38 -7 -80 -10 -73 -6 -77 -6 -83 16 -14 53 3 204 44 382 22
92 23 95 50 95 l28 0 4 -152z m2515 110 c-3 -8 -6 -5 -6 6 -1 11 2 17 5 13 3
-3 4 -12 1 -19z m-8 -49 c-5 -11 -19 -46 -30 -77 -19 -56 -19 -57 -15 -15 4
47 37 123 49 116 4 -2 2 -13 -4 -24z m-59 -148 c0 -24 -23 -70 -33 -64 -7 4
-8 0 -4 -11 6 -15 -68 -173 -94 -200 -27 -29 -12 16 46 132 36 71 65 135 65
141 0 6 5 11 10 11 6 0 10 -4 10 -9z m-3060 -146 l35 -13 -65 -1 c-87 -1 -170
-40 -229 -107 -47 -54 -45 -42 -25 -186 7 -51 -2 -60 -28 -30 -25 28 -48 91
-48 134 0 63 84 169 160 202 43 19 153 19 200 1z m1163 -57 c20 -6 42 -17 47
-24 9 -9 -10 -11 -88 -7 -151 8 -206 -1 -254 -45 -40 -36 -89 -121 -102 -177
-7 -27 -8 -28 -18 -10 -17 29 -12 98 10 141 39 75 102 121 192 138 36 7 169
-3 213 -16z m-1253 -260 c0 -13 3 -34 6 -48 5 -19 4 -22 -5 -14 -17 15 -27 84
-12 84 6 0 11 -10 11 -22z m-1106 -40 c8 -13 21 -50 31 -83 37 -133 137 -425
145 -425 5 0 69 118 142 263 l133 262 40 -1 c128 -5 247 -18 251 -28 3 -7 -9
-52 -25 -101 -22 -71 -32 -126 -42 -255 -18 -224 -18 -583 0 -678 11 -57 12
-75 2 -85 -18 -18 -177 -21 -225 -5 -59 20 -62 32 -43 140 19 110 35 529 19
513 -6 -5 -53 -85 -106 -178 -53 -92 -107 -185 -121 -207 -26 -42 -66 -60 -94
-43 -17 11 -77 150 -136 320 -21 59 -42 112 -46 117 -8 10 -13 -13 -29 -159
-19 -173 -24 -336 -11 -409 16 -92 12 -96 -98 -96 -90 0 -144 10 -176 34 -19
13 -19 16 -2 67 33 108 65 340 91 680 13 162 12 184 -3 265 -10 49 -16 95 -13
102 3 9 43 12 153 12 143 0 149 -1 163 -22z m3252 -71 c63 -68 52 -152 -26
-205 -29 -19 -44 -23 -84 -19 -41 4 -55 11 -83 41 -29 31 -33 43 -33 89 0 89
57 141 144 134 41 -4 55 -10 82 -40z m-1322 7 c20 -19 20 -38 1 -206 -8 -73
-21 -225 -30 -338 -8 -113 -18 -230 -21 -262 -5 -48 -3 -59 15 -77 32 -32 87
-27 169 15 39 20 78 34 86 31 23 -9 22 -121 -2 -167 -33 -67 -137 -100 -315
-100 -107 0 -168 14 -198 46 l-22 23 22 183 c44 375 54 665 26 783 -7 33 -11
63 -7 67 11 10 58 15 164 17 76 1 100 -2 112 -15z m954 -292 c2 -13 -25 -89
-61 -170 -35 -81 -106 -253 -157 -382 -51 -129 -98 -241 -104 -249 -15 -19
-166 -7 -182 14 -14 19 -111 238 -199 450 -37 88 -80 185 -96 217 -51 101 -44
108 107 108 121 0 127 -5 164 -139 43 -152 103 -331 112 -331 20 0 90 195 123
343 14 66 31 127 38 137 13 22 48 27 167 26 81 -1 85 -2 88 -24z m1020 -3 c34
-17 75 -46 90 -65 56 -67 68 -170 29 -239 -40 -70 -119 -108 -315 -150 -82
-18 -83 -19 -77 -44 17 -69 112 -113 194 -91 22 6 71 31 108 56 37 24 74 43
82 42 27 -5 36 -51 21 -105 -19 -66 -95 -142 -173 -171 -77 -29 -186 -30 -261
-1 -73 27 -150 97 -189 173 -28 54 -31 72 -35 166 -3 93 -1 113 21 177 33 93
75 153 142 204 76 57 135 78 226 79 65 0 84 -4 137 -31z m-2879 -20 c44 -15
47 -40 25 -193 -33 -234 -21 -320 49 -354 69 -33 134 33 162 164 17 79 19 249
4 313 -5 24 -7 46 -4 50 12 11 239 19 253 8 17 -14 15 -75 -9 -207 -30 -170
-36 -337 -15 -429 23 -99 17 -105 -104 -109 l-90 -4 -21 36 c-12 20 -24 36
-28 34 -3 -2 -30 -15 -58 -31 -124 -65 -231 -58 -313 21 -76 74 -95 172 -69
362 12 96 13 246 1 286 -17 53 -1 62 109 63 42 1 90 -4 108 -10z m2235 -12
c23 -17 23 -40 1 -242 -19 -176 -16 -322 10 -415 8 -30 15 -58 15 -61 0 -27
-202 -41 -254 -17 -34 15 -39 35 -26 110 6 34 14 151 17 258 4 156 2 210 -11
270 -10 49 -12 78 -6 84 9 9 103 20 201 24 19 1 43 -4 53 -11z"/>
<path d="M4010 5731 c0 -5 10 -11 23 -15 38 -10 43 -7 13 9 -33 17 -36 18 -36
6z"/>
<path d="M1347 5073 c-4 -3 -7 -11 -7 -17 0 -6 5 -5 12 2 6 6 9 14 7 17 -3 3
-9 2 -12 -2z"/>
<path d="M2603 5093 c9 -9 20 -13 24 -9 4 4 1 11 -7 16 -25 16 -35 11 -17 -7z"/>
<path d="M2600 5065 c7 -8 17 -15 22 -15 6 0 5 7 -2 15 -7 8 -17 15 -22 15 -6
0 -5 -7 2 -15z"/>
<path d="M1252 4958 c-7 -7 -12 -16 -12 -21 0 -5 7 -1 16 8 9 9 14 18 12 20
-2 3 -10 -1 -16 -7z"/>
<path d="M2880 4944 c0 -7 52 -25 57 -20 2 2 -10 8 -26 14 -17 6 -31 9 -31 6z"/>
<path d="M2290 4512 c0 -5 7 -13 16 -16 10 -4 14 -1 12 6 -5 15 -28 23 -28 10z"/>
<path d="M5145 4459 c-4 -6 -5 -12 -2 -15 2 -3 7 2 10 11 7 17 1 20 -8 4z"/>
<path d="M5545 4429 c-4 -6 -5 -12 -2 -15 2 -3 7 2 10 11 7 17 1 20 -8 4z"/>
<path d="M1456 4294 c-9 -24 -2 -26 12 -4 7 11 8 20 3 20 -5 0 -12 -7 -15 -16z"/>
<path d="M1210 3979 c0 -5 5 -7 10 -4 6 3 10 8 10 11 0 2 -4 4 -10 4 -5 0 -10
-5 -10 -11z"/>
<path d="M4375 3989 c-4 -6 -5 -12 -2 -15 2 -3 7 2 10 11 7 17 1 20 -8 4z"/>
<path d="M5660 3890 c0 -5 5 -10 11 -10 5 0 7 5 4 10 -3 6 -8 10 -11 10 -2 0
-4 -4 -4 -10z"/>
<path d="M4740 3901 c0 -5 7 -14 15 -21 16 -14 18 -10 9 14 -6 17 -24 22 -24
7z"/>
<path d="M4731 3847 c-13 -21 -12 -21 5 -5 10 10 16 20 13 22 -3 3 -11 -5 -18
-17z"/>
<path d="M2057 3583 c-4 -3 -7 -11 -7 -17 0 -6 5 -5 12 2 6 6 9 14 7 17 -3 3
-9 2 -12 -2z"/>
<path d="M2096 3214 c-11 -28 -6 -94 8 -129 35 -83 153 -163 283 -190 36 -8
68 -16 71 -19 3 -3 7 -30 10 -59 4 -46 1 -57 -22 -84 -15 -18 -36 -35 -46 -38
-26 -8 -25 -25 1 -25 11 0 40 16 64 36 l43 35 49 -34 c100 -72 232 -88 332
-42 61 29 65 44 5 19 -121 -51 -316 13 -365 119 -31 69 -27 83 29 91 110 15
255 94 287 157 19 36 22 106 6 122 -8 8 -99 14 -289 19 -190 4 -299 11 -347
22 -90 20 -111 20 -119 0z"/>
<path d="M3094 2927 c-16 -13 -44 -34 -62 -46 -31 -22 -34 -22 -51 -7 -17 16
-18 15 -14 -7 4 -20 -2 -26 -36 -39 -23 -9 -41 -21 -41 -27 0 -14 1 -14 39 5
19 9 42 13 56 10 20 -5 25 -3 25 13 0 12 16 28 43 44 45 27 84 64 75 72 -3 3
-18 -5 -34 -18z"/>
<path d="M2170 2809 c0 -22 74 -25 110 -4 23 13 21 14 -42 13 -38 -1 -68 -5
-68 -9z"/>
<path d="M2960 2780 c-8 -5 -13 -10 -10 -11 3 0 15 -2 26 -5 12 -2 27 3 34 11
10 13 9 15 -11 15 -13 0 -31 -5 -39 -10z"/>
<path d="M2260 2765 c0 -8 7 -15 15 -15 9 0 12 6 9 15 -4 8 -10 15 -15 15 -5
0 -9 -7 -9 -15z"/>
<path d="M5097 1301 c-40 -26 -74 -79 -83 -125 l-7 -39 77 6 c130 10 190 52
172 122 -13 50 -106 72 -159 36z"/>
</g>
</svg>
